#!OML:ASF E:\EmotionMaleHayes\Project 1\Capture day 1\Session 1\Male1.ASF
:FULLY-SPECIFIED
:DEGREES
1
root -29.8852 16.4762 2.07924 42.8387 83.422 41.1801
lowerback 1.77784 2.01213 -7.92097
upperback 1.87333 2.66289 -1.63415
thorax 0.664292 1.28113 2.70629
lowerneck -19.0547 0.564157 2.63536
upperneck 23.5239 -0.169664 1.36325
head 10.7361 0.422158 0.0411727
rclavicle -1.59525e-014 0
rhumerus -34.1101 5.97709 -91.1043
rradius 29.2428
rwrist 2.50086
rhand -12.7702 -27.7088
rfingers 7.12502
rthumb 13.3148 -57.2635
lclavicle -1.59525e-014 0
lhumerus -32.2028 -6.70877 87.4138
lradius 26.1431
lwrist -11.6349
lhand -14.8476 -28.4277
lfingers 7.12502
lthumb 11.3117 1.24723
rfemur -5.69809 -8.24678 16.5988
rtibia 26.353
rfoot -27.4611 4.35729
rtoes 10.6535
lfemur -3.74739 1.79619 -23.0377
ltibia 26.3209
lfoot -26.1836 12.9224
ltoes -21.3909
2
root -29.8772 16.4723 2.09256 43.3934 83.5525 41.7707
lowerback 1.93481 2.00329 -7.75075
upperback 1.87637 2.63816 -1.6641
thorax 0.590075 1.27348 2.57583
lowerneck -19.4527 0.562776 2.87484
upperneck 23.6376 -0.178317 1.01986
head 10.8533 0.397497 -0.122809
rclavicle -1.78906e-014 1.23246e-014
rhumerus -33.9893 6.15956 -91.2389
rradius 29.2443
rwrist 2.48456
rhand -12.604 -27.8584
rfingers 7.12502
rthumb 13.4749 -57.4025
lclavicle -1.78906e-014 1.23246e-014
lhumerus -32.4451 -6.788 87.3211
lradius 26.5727
lwrist -11.2342
lhand -15.4764 -28.5215
lfingers 7.12502
lthumb 10.7052 1.18574
rfemur -5.55581 -8.09386 16.7175
rtibia 26.2956
rfoot -27.5631 4.12216
rtoes 11.5215
lfemur -3.88471 2.68178 -22.7714
ltibia 26.604
lfoot -25.896 12.1931
ltoes -22.3496
3
root -29.8706 16.4722 2.10662 44.0821 83.6533 42.4493
lowerback 2.28219 1.94603 -7.69114
upperback 1.70908 2.51498 -1.59672
thorax 0.233321 1.22703 2.59887
lowerneck -19.5741 0.596042 2.89307
upperneck 23.7018 -0.0640658 0.719702
head 10.9002 0.413137 -0.217154
rclavicle -1.88845e-015 -1.55052e-014
rhumerus -34.0906 6.70162 -91.363
rradius 29.2299
rwrist 2.42103
rhand -12.5628 -27.8102
rfingers 7.12502
rthumb 13.5146 -57.3516
lclavicle -1.88845e-015 -1.55052e-014
lhumerus -33.0573 -6.48327 87.2929
lradius 27.1917
lwrist -10.9844
lhand -15.4299 -28.4203
lfingers 7.12502
lthumb 10.7501 1.28463
rfemur -5.31536 -7.81685 16.8384
rtibia 25.919
rfoot -27.5429 3.8164
rtoes 12.2801
lfemur -4.17795 2.4208 -22.7371
ltibia 27.206
lfoot -26.3426 12.2653
ltoes -21.9837
4
root -29.861 16.4736 2.12325 41.5637 83.8488 39.9508
lowerback 2.36369 1.91497 -7.2923
upperback 1.73212 2.47022 -1.46863
thorax 0.225104 1.2054 2.50873
lowerneck -19.5552 0.67021 2.90254
upperneck 23.401 0.0899361 0.498423
head 10.7862 0.447212 -0.277118
rclavicle 3.15571e-015 2.38542e-015
rhumerus -33.7932 7.11233 -91.457
rradius 29.057
rwrist 2.49039
rhand -12.5255 -27.8529
rfingers 7.12502
rthumb 13.5506 -57.392
lclavicle 3.15571e-015 2.38542e-015
lhumerus -33.1348 -6.14942 87.1675
lradius 27.3589
lwrist -10.7712
lhand -15.7883 -28.4133
lfingers 7.12502
lthumb 10.4044 1.30932
rfemur -5.05168 -7.89919 17.2601
rtibia 25.5381
rfoot -27.4517 3.89091
rtoes 12.0272
lfemur -4.4035 2.91174 -22.2357
ltibia 27.8531
lfoot -26.5579 11.8435
ltoes -21.8466
5
root -29.8516 16.4726 2.1387 37.1401 84.1122 35.649
lowerback 2.55254 1.95722 -6.66895
upperback 1.78132 2.52025 -1.33719
thorax 0.183258 1.23335 2.29075
lowerneck -19.6121 0.769737 2.92714
upperneck 23.251 0.24964 0.368747
head 10.7436 0.501236 -0.30477
rclavicle -1.42628e-014 4.37326e-015
rhumerus -33.5461 7.45154 -91.6044
rradius 29.0084
rwrist 2.62231
rhand -12.4707 -28.5027
rfingers 7.12502
rthumb 13.6033 -58.0382
lclavicle -1.42628e-014 4.37326e-015
lhumerus -33.3162 -6.31087 87.1555
lradius 27.6736
lwrist -10.3322
lhand -16.2848 -28.3575
lfingers 7.12502
lthumb 9.92539 1.38847
rfemur -4.60182 -8.02616 17.8513
rtibia 25.0612
rfoot -27.3286 4.09837
rtoes 12.5923
lfemur -4.57674 3.24565 -21.5417
ltibia 28.6281
lfoot -26.6578 11.5124
ltoes -21.8399
6
root -29.8429 16.4646 2.15365 34.0909 84.3382 32.7661
lowerback 2.81981 1.97846 -6.17552
upperback 1.85117 2.53935 -1.26377
thorax 0.120025 1.24635 2.0833
lowerneck -19.7545 0.821684 2.94875
upperneck 23.1068 0.34603 0.208558
head 10.7188 0.521991 -0.352079
rclavicle 7.45443e-015 -3.97569e-015
rhumerus -33.4225 8.16399 -91.9619
rradius 29.1437
rwrist 2.86595
rhand -12.8911 -29.4604
rfingers 7.12502
rthumb 13.1982 -59.0226
lclavicle 7.45443e-015 -3.97569e-015
lhumerus -33.5275 -6.57611 87.157
lradius 28.1229
lwrist -9.52777
lhand -15.6068 -28.0733
lfingers 7.12502
lthumb 10.5795 1.64038
rfemur -4.08789 -8.02786 18.2937
rtibia 24.5604
rfoot -27.2663 4.13771
rtoes 12.4238
lfemur -4.81334 3.14782 -21.0614
ltibia 29.5204
lfoot -26.8225 11.4284
ltoes -21.8963
7
root -29.8321 16.4517 2.16947 30.3458 84.5485 29.1618
lowerback 3.08165 1.98207 -5.58507
upperback 1.90773 2.54032 -1.22682
thorax 0.0533815 1.25159 1.78474
lowerneck -19.9102 0.855666 2.94074
upperneck 22.948 0.392866 0.171134
head 10.6905 0.532839 -0.357497
rclavicle -2.6339e-015 -1.39149e-014
rhumerus -33.1458 8.16736 -91.975
rradius 29.0069
rwrist 2.77861
rhand -12.824 -28.4261
rfingers 7.12502
rthumb 13.2629 -57.9841
lclavicle -2.6339e-015 -1.39149e-014
lhumerus -33.6047 -6.45555 86.9134
lradius 28.3108
lwrist -9.19676
lhand -15.0392 -28.1622
lfingers 7.12502
lthumb 11.1269 1.52282
rfemur -3.68067 -8.14052 18.7672
rtibia 24.1387
rfoot -27.2109 4.21065
rtoes 11.4937
lfemur -5.09431 3.15365 -20.5209
ltibia 30.4412
lfoot -26.9094 11.272
ltoes -22.0745
8
root -29.8221 16.4433 2.18308 28.6963 84.6008 27.5603
lowerback 3.35021 2.05316 -5.39655
upperback 1.87779 2.61846 -1.15615
thorax -0.128842 1.29591 1.73856
lowerneck -20.1383 0.795531 2.85517
upperneck 22.9368 0.332782 0.131362
head 10.7282 0.490912 -0.366241
rclavicle 1.73688e-014 -9.14409e-015
rhumerus -33.2691 8.48511 -92.0077
rradius 29.4937
rwrist 2.59178
rhand -12.6631 -28.323
rfingers 7.12502
rthumb 13.418 -57.8708
lclavicle 1.73688e-014 -9.14409e-015
lhumerus -34.0593 -7.43371 87.2616
lradius 29.0024
lwrist -7.79281
lhand -15.9542 -27.9231
lfingers 7.12502
lthumb 10.2444 1.80744
rfemur -3.42249 -8.20646 18.963
rtibia 23.7702
rfoot -27.1138 4.23113
rtoes 11.8474
lfemur -5.52285 3.42735 -20.2577
ltibia 31.4115
lfoot -26.8596 11.162
ltoes -22.4453
9
root -29.8155 16.4412 2.19427 29.0856 84.7089 27.9826
lowerback 3.63155 2.07628 -5.26925
upperback 1.84413 2.63236 -1.16186
thorax -0.31616 1.30853 1.64971
lowerneck -20.3056 0.721619 2.89667
upperneck 22.918 0.23393 0.0235345
head 10.7515 0.434303 -0.426754
rclavicle -6.95746e-016 1.70955e-014
rhumerus -33.3137 8.86937 -92.159
rradius 30.0028
rwrist 2.35428
rhand -12.5305 -28.7456
rfingers 7.12502
rthumb 13.5457 -58.285
lclavicle -6.95746e-016 1.70955e-014
lhumerus -33.9771 -6.69702 86.9685
lradius 28.902
lwrist -8.2504
lhand -14.6151 -27.9588
lfingers 7.12502
lthumb 11.536 1.70371
rfemur -3.12491 -8.2919 18.9984
rtibia 23.3448
rfoot -26.8819 4.39133
rtoes 13.2154
lfemur -6.11027 3.90224 -20.1451
ltibia 32.5138
lfoot -26.5527 11.1421
ltoes -23.3487
10
root -29.8109 16.4427 2.20585 25.3701 85.0729 24.3594
lowerback 4.0366 2.01587 -4.73409
upperback 1.81152 2.54093 -0.998693
thorax -0.555678 1.26928 1.5078
lowerneck -20.17 0.736372 2.76825
upperneck 22.5676 0.307476 -0.025657
head 10.5975 0.44293 -0.412916
rclavicle -1.18277e-014 1.98785e-014
rhumerus -32.9795 9.09687 -92.1953
rradius 29.7013
rwrist 2.4703
rhand -12.6557 -28.5189
rfingers 7.12502
rthumb 13.4251 -58.0663
lclavicle -1.18277e-014 1.98785e-014
lhumerus -34.461 -7.47062 87.2599
lradius 29.5299
lwrist -7.12295
lhand -14.3347 -27.7145
lfingers 7.12502
lthumb 11.8063 1.93269
rfemur -2.70113 -8.52456 19.5108
rtibia 22.8638
rfoot -26.7177 4.47757
rtoes 12.6898
lfemur -6.71701 4.32459 -19.5357
ltibia 33.7528
lfoot -26.3204 10.8856
ltoes -23.05
